<svg id="svg" version="1.1" xmlns="http://www.w3.org/2000/svg" xmlns:xlink="http://www.w3.org/1999/xlink" width="400" height="400" viewBox="0, 0, 400,400"><g id="svgg"><path id="path0" d="M150.113 65.337 C 123.981 78.393,95.040 92.825,85.800 97.408 C 76.560 101.992,68.240 106.255,67.311 106.882 C 61.941 110.509,61.195 117.553,65.718 121.925 C 66.629 122.805,74.889 127.127,90.344 134.810 L 113.600 146.371 113.600 175.970 C 113.600 211.681,113.005 207.989,119.735 214.062 C 122.191 216.278,124.740 218.488,125.400 218.971 C 130.316 222.573,133.853 224.921,136.600 226.406 C 138.360 227.358,140.430 228.495,141.200 228.933 C 142.901 229.902,144.155 230.523,146.000 231.310 C 146.770 231.638,148.253 232.288,149.296 232.753 C 150.338 233.219,151.285 233.600,151.400 233.600 C 151.515 233.600,152.372 233.943,153.304 234.362 C 154.237 234.782,156.890 235.701,159.200 236.405 C 161.510 237.108,163.850 237.828,164.400 238.004 C 165.573 238.379,168.364 239.033,174.500 240.371 C 175.435 240.575,177.820 240.944,179.800 241.191 C 181.780 241.439,184.750 241.835,186.400 242.072 C 190.395 242.645,209.454 242.634,213.441 242.056 C 215.179 241.805,218.490 241.330,220.800 241.001 C 223.110 240.673,225.720 240.245,226.600 240.050 C 227.480 239.856,229.640 239.394,231.400 239.024 C 233.160 238.655,235.590 238.019,236.800 237.611 C 238.010 237.203,240.481 236.414,242.290 235.858 C 244.100 235.302,246.260 234.545,247.090 234.176 C 249.740 232.998,250.956 232.483,252.800 231.755 C 255.023 230.878,258.373 229.133,264.547 225.637 C 265.970 224.831,268.967 222.807,273.636 219.501 C 275.562 218.136,281.349 213.052,283.310 211.000 C 285.961 208.227,285.789 210.457,285.910 177.229 C 285.982 157.498,286.161 146.888,286.427 146.567 C 287.009 145.866,316.463 131.200,317.289 131.200 C 317.933 131.200,317.984 133.240,318.088 162.900 C 318.211 197.828,317.999 195.067,320.800 198.133 C 324.436 202.114,330.876 202.153,334.333 198.215 C 337.230 194.916,337.000 198.792,337.000 153.200 L 337.000 112.200 335.891 110.314 C 335.281 109.276,334.201 108.002,333.491 107.482 C 332.352 106.649,205.519 43.211,202.681 42.056 C 199.253 40.659,201.499 39.664,150.113 65.337 M253.741 88.862 C 282.088 103.038,305.287 114.808,305.294 115.018 C 305.307 115.456,200.931 167.931,199.964 167.973 C 199.407 167.997,181.550 159.098,111.809 124.041 C 102.354 119.289,94.577 115.220,94.527 115.000 C 94.284 113.936,199.669 62.018,200.962 62.565 C 201.643 62.853,225.393 74.687,253.741 88.862 M164.400 171.798 C 202.026 190.594,198.431 189.020,201.747 188.155 C 202.817 187.876,217.760 180.617,234.952 172.024 C 252.145 163.431,266.344 156.400,266.506 156.400 C 266.667 156.400,266.800 166.247,266.800 178.283 L 266.800 200.165 265.300 201.500 C 264.475 202.235,262.630 203.665,261.200 204.680 C 259.770 205.694,257.963 207.014,257.184 207.613 C 255.716 208.743,246.058 213.853,243.600 214.801 C 242.830 215.098,241.070 215.849,239.690 216.470 C 238.309 217.092,236.959 217.603,236.690 217.606 C 236.420 217.609,235.390 217.901,234.400 218.255 C 232.491 218.937,231.730 219.153,227.600 220.187 C 222.478 221.469,221.719 221.601,212.600 222.803 C 207.994 223.410,199.387 223.588,193.000 223.208 C 187.496 222.880,185.569 222.663,179.200 221.654 C 175.531 221.073,170.726 219.994,168.400 219.230 C 167.190 218.832,165.390 218.266,164.400 217.970 C 160.164 216.707,152.435 213.285,146.919 210.229 C 144.664 208.981,143.387 208.136,137.691 204.121 C 136.693 203.417,135.184 202.166,134.338 201.340 L 132.800 199.838 132.800 178.092 L 132.800 156.346 133.700 156.628 C 134.195 156.784,148.010 163.610,164.400 171.798 M311.800 252.676 C 309.888 253.227,307.483 253.877,301.100 255.569 C 299.505 255.991,297.165 256.621,295.900 256.969 C 294.635 257.316,292.565 257.884,291.300 258.231 C 290.035 258.579,287.695 259.209,286.100 259.631 C 284.505 260.054,281.805 260.772,280.100 261.226 C 278.395 261.680,275.740 262.373,274.200 262.766 C 270.949 263.594,270.990 263.468,272.358 268.500 C 272.821 270.205,273.560 272.950,274.000 274.600 C 276.097 282.464,276.479 283.883,276.800 285.000 C 277.121 286.117,277.503 287.536,279.600 295.400 C 281.697 303.264,282.079 304.683,282.400 305.800 C 282.590 306.460,283.117 308.395,283.572 310.100 C 285.190 316.158,286.010 319.237,286.769 322.100 C 287.191 323.695,287.821 326.035,288.169 327.300 C 288.516 328.565,289.084 330.635,289.431 331.900 C 289.779 333.165,290.409 335.505,290.831 337.100 C 291.254 338.695,291.946 341.305,292.369 342.900 C 293.670 347.812,294.416 350.567,294.652 351.339 C 294.918 352.207,295.733 352.137,300.500 350.842 C 302.205 350.379,304.950 349.640,306.600 349.200 C 314.464 347.103,315.883 346.721,317.000 346.400 C 318.117 346.079,319.536 345.697,327.400 343.600 C 337.151 341.000,337.625 340.870,339.932 340.172 C 340.655 339.953,340.806 339.700,340.605 339.045 C 339.952 336.917,338.941 333.205,337.243 326.700 C 336.826 325.105,336.351 323.469,336.186 323.064 C 335.859 322.260,336.026 322.243,331.100 323.567 C 329.395 324.025,326.695 324.746,325.100 325.169 C 323.505 325.591,321.165 326.221,319.900 326.569 C 306.366 330.284,307.930 330.368,306.781 325.861 C 305.914 322.464,304.796 318.225,303.822 314.643 C 303.030 311.734,302.080 312.348,311.000 310.000 C 313.670 309.297,315.541 308.789,320.700 307.365 C 321.965 307.016,323.607 306.580,324.349 306.396 C 326.272 305.920,326.408 305.638,325.798 303.400 C 325.498 302.300,324.959 300.320,324.600 299.000 C 324.241 297.680,323.674 295.610,323.339 294.400 C 323.004 293.190,322.557 291.487,322.344 290.616 C 321.913 288.845,321.286 287.900,320.759 288.225 C 320.567 288.344,319.417 288.702,318.205 289.021 C 316.992 289.339,314.965 289.884,313.700 290.231 C 310.541 291.099,306.176 292.253,302.628 293.159 C 300.994 293.576,299.484 294.025,299.273 294.155 C 298.718 294.498,298.099 293.597,297.644 291.784 C 297.425 290.913,297.068 289.570,296.850 288.800 C 296.633 288.030,296.097 286.050,295.659 284.400 C 295.221 282.750,294.591 280.410,294.259 279.200 C 293.531 276.540,293.518 276.555,297.339 275.581 C 299.023 275.151,301.750 274.440,303.400 274.000 C 305.050 273.560,307.705 272.854,309.300 272.431 C 319.305 269.780,320.000 269.554,320.000 268.956 C 320.000 268.672,319.716 267.395,319.369 266.120 C 319.021 264.844,318.379 262.450,317.941 260.800 C 316.759 256.346,316.514 255.461,316.280 254.800 C 316.163 254.470,315.958 253.705,315.826 253.100 C 315.548 251.833,314.944 251.769,311.800 252.676 M86.200 253.100 C 86.043 253.485,85.561 255.150,85.130 256.800 C 84.698 258.450,84.190 260.340,84.000 261.000 C 83.810 261.660,83.283 263.595,82.828 265.300 C 81.210 271.358,80.390 274.437,79.631 277.300 C 79.209 278.895,78.579 281.235,78.231 282.500 C 77.884 283.765,77.316 285.835,76.969 287.100 C 76.621 288.365,75.991 290.705,75.569 292.300 C 75.146 293.895,74.454 296.505,74.031 298.100 C 73.304 300.846,72.737 302.932,71.343 308.000 C 71.010 309.210,70.391 311.505,69.969 313.100 C 69.210 315.963,68.390 319.042,66.772 325.100 C 66.317 326.805,65.790 328.740,65.600 329.400 C 62.134 341.463,62.091 340.885,66.539 342.019 C 68.223 342.449,70.950 343.160,72.600 343.600 C 74.250 344.040,76.905 344.746,78.500 345.169 C 80.095 345.591,82.390 346.210,83.600 346.543 C 88.668 347.937,90.754 348.504,93.500 349.231 C 95.095 349.654,97.795 350.371,99.500 350.825 C 109.070 353.372,108.399 353.446,109.350 349.742 C 109.737 348.234,110.209 346.460,110.399 345.800 C 112.991 336.800,113.194 335.383,111.937 335.087 C 111.422 334.965,109.605 334.491,107.900 334.033 C 104.194 333.037,99.858 331.880,95.900 330.831 C 86.878 328.440,85.197 327.938,85.210 327.637 C 85.223 327.314,85.838 324.957,88.433 315.300 C 88.891 313.595,89.365 311.778,89.487 311.262 C 89.739 310.193,89.862 310.200,94.900 311.562 C 96.605 312.023,99.350 312.760,101.000 313.200 C 102.650 313.640,105.395 314.385,107.100 314.855 C 111.804 316.153,113.290 316.095,113.649 314.600 C 113.945 313.369,114.954 309.578,116.442 304.100 C 117.856 298.897,117.862 298.536,116.538 298.296 C 115.912 298.183,114.365 297.800,113.100 297.445 C 108.056 296.030,104.160 294.982,98.000 293.382 C 94.258 292.409,94.338 293.403,97.144 282.800 C 99.465 274.028,98.967 274.684,102.600 275.624 C 106.282 276.576,111.496 277.968,113.000 278.400 C 114.106 278.718,115.954 279.214,122.711 281.010 C 125.942 281.869,126.121 281.772,126.898 278.742 C 127.701 275.612,128.929 270.964,129.769 267.880 C 130.612 264.782,130.570 264.144,129.500 263.823 C 128.605 263.554,125.444 262.701,119.900 261.231 C 118.305 260.809,115.965 260.179,114.700 259.831 C 113.435 259.484,111.365 258.916,110.100 258.569 C 108.835 258.221,106.495 257.591,104.900 257.169 C 102.037 256.410,98.958 255.590,92.900 253.972 C 85.930 252.112,86.569 252.195,86.200 253.100 M137.866 267.247 C 137.726 267.771,137.608 269.246,137.605 270.523 C 137.602 271.801,137.425 274.501,137.212 276.523 C 136.998 278.546,136.632 282.630,136.399 285.600 C 136.165 288.570,135.800 293.115,135.587 295.700 C 135.374 298.285,135.026 302.515,134.813 305.100 C 134.600 307.685,134.231 312.230,133.993 315.200 C 133.755 318.170,133.378 322.607,133.155 325.060 C 131.559 342.660,141.165 356.306,158.000 360.357 C 174.120 364.235,189.957 357.123,196.327 343.147 C 198.679 337.987,199.075 335.136,201.209 308.000 C 201.442 305.030,201.801 300.710,202.005 298.400 C 202.209 296.090,202.571 291.590,202.808 288.400 C 203.046 285.210,203.411 281.058,203.620 279.173 C 204.496 271.270,204.753 271.656,198.285 271.161 C 184.275 270.088,185.617 269.732,185.605 274.523 C 185.602 275.801,185.427 278.501,185.215 280.523 C 185.003 282.546,184.647 286.450,184.425 289.200 C 184.203 291.950,183.833 296.540,183.603 299.400 C 183.372 302.260,183.010 306.670,182.797 309.200 C 182.585 311.730,182.223 316.230,181.994 319.200 C 180.906 333.275,180.174 335.970,176.579 339.135 C 169.318 345.526,156.157 342.990,152.582 334.509 C 151.346 331.576,151.381 328.118,152.822 310.600 C 153.021 308.180,153.360 304.040,153.576 301.400 C 154.569 289.251,154.878 285.498,155.222 281.400 C 155.977 272.411,156.125 268.124,155.688 267.855 C 155.455 267.710,152.864 267.416,149.932 267.201 C 146.999 266.986,143.142 266.694,141.361 266.552 C 138.189 266.299,138.116 266.314,137.866 267.247 M236.800 267.640 C 232.211 268.544,230.785 268.984,227.800 270.416 C 207.775 280.027,207.896 309.000,228.000 318.083 C 228.770 318.431,230.228 319.087,231.240 319.541 C 233.467 320.539,237.809 321.968,242.400 323.214 C 251.747 325.751,255.474 330.423,252.758 336.200 C 249.846 342.395,241.183 343.963,226.800 340.900 C 226.250 340.783,224.186 339.996,222.213 339.151 C 220.239 338.306,218.507 337.747,218.363 337.907 C 218.219 338.068,217.997 342.294,217.871 347.297 C 217.608 357.682,217.234 356.605,221.582 357.994 C 232.270 361.409,244.684 361.795,253.023 358.974 C 275.357 351.417,279.235 323.091,259.551 311.282 C 257.197 309.869,256.347 309.440,252.700 307.824 C 250.982 307.062,246.176 305.499,242.200 304.408 C 233.501 302.021,230.026 297.843,231.765 291.861 C 233.780 284.931,241.351 283.224,255.928 286.413 C 258.676 287.014,258.441 287.680,258.852 278.119 C 259.266 268.476,259.566 269.218,254.943 268.457 C 253.214 268.173,250.936 267.773,249.880 267.570 C 247.516 267.114,239.245 267.159,236.800 267.640 " stroke="none" fill="#fbfafc" fill-rule="evenodd"></path><path id="path1" d="M0.000 200.000 L 0.000 400.000 200.000 400.000 L 400.000 400.000 400.000 200.000 L 400.000 0.000 200.000 0.000 L 0.000 0.000 0.000 200.000 M202.681 42.056 C 205.519 43.211,332.352 106.649,333.491 107.482 C 334.201 108.002,335.281 109.276,335.891 110.314 L 337.000 112.200 337.000 153.200 C 337.000 198.792,337.230 194.916,334.333 198.215 C 330.876 202.153,324.436 202.114,320.800 198.133 C 317.999 195.067,318.211 197.828,318.088 162.900 C 317.984 133.240,317.933 131.200,317.289 131.200 C 316.463 131.200,287.009 145.866,286.427 146.567 C 286.161 146.888,285.982 157.498,285.910 177.229 C 285.789 210.457,285.961 208.227,283.310 211.000 C 281.349 213.052,275.562 218.136,273.636 219.501 C 268.967 222.807,265.970 224.831,264.547 225.637 C 258.373 229.133,255.023 230.878,252.800 231.755 C 250.956 232.483,249.740 232.998,247.090 234.176 C 246.260 234.545,244.100 235.302,242.290 235.858 C 240.481 236.414,238.010 237.203,236.800 237.611 C 235.590 238.019,233.160 238.655,231.400 239.024 C 229.640 239.394,227.480 239.856,226.600 240.050 C 225.720 240.245,223.110 240.673,220.800 241.001 C 218.490 241.330,215.179 241.805,213.441 242.056 C 209.454 242.634,190.395 242.645,186.400 242.072 C 184.750 241.835,181.780 241.439,179.800 241.191 C 177.820 240.944,175.435 240.575,174.500 240.371 C 168.364 239.033,165.573 238.379,164.400 238.004 C 163.850 237.828,161.510 237.108,159.200 236.405 C 156.890 235.701,154.237 234.782,153.304 234.362 C 152.372 233.943,151.515 233.600,151.400 233.600 C 151.285 233.600,150.338 233.219,149.296 232.753 C 148.253 232.288,146.770 231.638,146.000 231.310 C 144.155 230.523,142.901 229.902,141.200 228.933 C 140.430 228.495,138.360 227.358,136.600 226.406 C 133.853 224.921,130.316 222.573,125.400 218.971 C 124.740 218.488,122.191 216.278,119.735 214.062 C 113.005 207.989,113.600 211.681,113.600 175.970 L 113.600 146.371 90.344 134.810 C 74.889 127.127,66.629 122.805,65.718 121.925 C 61.195 117.553,61.941 110.509,67.311 106.882 C 68.240 106.255,76.560 101.992,85.800 97.408 C 95.040 92.825,123.981 78.393,150.113 65.337 C 201.499 39.664,199.253 40.659,202.681 42.056 M147.079 88.320 C 118.125 102.774,94.476 114.780,94.527 115.000 C 94.577 115.220,102.354 119.289,111.809 124.041 C 181.550 159.098,199.407 167.997,199.964 167.973 C 200.931 167.931,305.307 115.456,305.294 115.018 C 305.284 114.702,204.862 64.214,200.962 62.565 C 199.748 62.051,198.675 62.564,147.079 88.320 M132.800 178.092 L 132.800 199.838 134.338 201.340 C 135.184 202.166,136.693 203.417,137.691 204.121 C 143.387 208.136,144.664 208.981,146.919 210.229 C 152.435 213.285,160.164 216.707,164.400 217.970 C 165.390 218.266,167.190 218.832,168.400 219.230 C 170.726 219.994,175.531 221.073,179.200 221.654 C 185.569 222.663,187.496 222.880,193.000 223.208 C 199.387 223.588,207.994 223.410,212.600 222.803 C 221.719 221.601,222.478 221.469,227.600 220.187 C 231.730 219.153,232.491 218.937,234.400 218.255 C 235.390 217.901,236.420 217.609,236.690 217.606 C 236.959 217.603,238.309 217.092,239.690 216.470 C 241.070 215.849,242.830 215.098,243.600 214.801 C 246.058 213.853,255.716 208.743,257.184 207.613 C 257.963 207.014,259.770 205.694,261.200 204.680 C 262.630 203.665,264.475 202.235,265.300 201.500 L 266.800 200.165 266.800 178.283 C 266.800 166.247,266.667 156.400,266.506 156.400 C 266.344 156.400,252.145 163.431,234.952 172.024 C 217.760 180.617,202.817 187.876,201.747 188.155 C 198.431 189.020,202.026 190.594,164.400 171.798 C 148.010 163.610,134.195 156.784,133.700 156.628 L 132.800 156.346 132.800 178.092 M315.826 253.100 C 315.958 253.705,316.163 254.470,316.280 254.800 C 316.514 255.461,316.759 256.346,317.941 260.800 C 318.379 262.450,319.021 264.844,319.369 266.120 C 319.716 267.395,320.000 268.672,320.000 268.956 C 320.000 269.554,319.305 269.780,309.300 272.431 C 307.705 272.854,305.050 273.560,303.400 274.000 C 301.750 274.440,299.023 275.151,297.339 275.581 C 293.518 276.555,293.531 276.540,294.259 279.200 C 294.591 280.410,295.221 282.750,295.659 284.400 C 296.097 286.050,296.633 288.030,296.850 288.800 C 297.068 289.570,297.425 290.913,297.644 291.784 C 298.099 293.597,298.718 294.498,299.273 294.155 C 299.484 294.025,300.994 293.576,302.628 293.159 C 306.176 292.253,310.541 291.099,313.700 290.231 C 314.965 289.884,316.992 289.339,318.205 289.021 C 319.417 288.702,320.567 288.344,320.759 288.225 C 321.286 287.900,321.913 288.845,322.344 290.616 C 322.557 291.487,323.004 293.190,323.339 294.400 C 323.674 295.610,324.241 297.680,324.600 299.000 C 324.959 300.320,325.498 302.300,325.798 303.400 C 326.408 305.638,326.272 305.920,324.349 306.396 C 323.607 306.580,321.965 307.016,320.700 307.365 C 315.541 308.789,313.670 309.297,311.000 310.000 C 302.080 312.348,303.030 311.734,303.822 314.643 C 304.796 318.225,305.914 322.464,306.781 325.861 C 307.930 330.368,306.366 330.284,319.900 326.569 C 321.165 326.221,323.505 325.591,325.100 325.169 C 326.695 324.746,329.395 324.025,331.100 323.567 C 336.026 322.243,335.859 322.260,336.186 323.064 C 336.351 323.469,336.826 325.105,337.243 326.700 C 338.941 333.205,339.952 336.917,340.605 339.045 C 340.806 339.700,340.655 339.953,339.932 340.172 C 337.625 340.870,337.151 341.000,327.400 343.600 C 319.536 345.697,318.117 346.079,317.000 346.400 C 315.883 346.721,314.464 347.103,306.600 349.200 C 304.950 349.640,302.205 350.379,300.500 350.842 C 295.733 352.137,294.918 352.207,294.652 351.339 C 294.416 350.567,293.670 347.812,292.369 342.900 C 291.946 341.305,291.254 338.695,290.831 337.100 C 290.409 335.505,289.779 333.165,289.431 331.900 C 289.084 330.635,288.516 328.565,288.169 327.300 C 287.821 326.035,287.191 323.695,286.769 322.100 C 286.010 319.237,285.190 316.158,283.572 310.100 C 283.117 308.395,282.590 306.460,282.400 305.800 C 282.079 304.683,281.697 303.264,279.600 295.400 C 277.503 287.536,277.121 286.117,276.800 285.000 C 276.479 283.883,276.097 282.464,274.000 274.600 C 273.560 272.950,272.821 270.205,272.358 268.500 C 270.990 263.468,270.949 263.594,274.200 262.766 C 275.740 262.373,278.395 261.680,280.100 261.226 C 281.805 260.772,284.505 260.054,286.100 259.631 C 287.695 259.209,290.035 258.579,291.300 258.231 C 292.565 257.884,294.635 257.316,295.900 256.969 C 297.165 256.621,299.505 255.991,301.100 255.569 C 307.483 253.877,309.888 253.227,311.800 252.676 C 314.944 251.769,315.548 251.833,315.826 253.100 M88.400 252.782 C 89.170 252.981,91.195 253.517,92.900 253.972 C 98.958 255.590,102.037 256.410,104.900 257.169 C 106.495 257.591,108.835 258.221,110.100 258.569 C 111.365 258.916,113.435 259.484,114.700 259.831 C 115.965 260.179,118.305 260.809,119.900 261.231 C 125.444 262.701,128.605 263.554,129.500 263.823 C 130.570 264.144,130.612 264.782,129.769 267.880 C 128.929 270.964,127.701 275.612,126.898 278.742 C 126.121 281.772,125.942 281.869,122.711 281.010 C 115.954 279.214,114.106 278.718,113.000 278.400 C 111.496 277.968,106.282 276.576,102.600 275.624 C 98.967 274.684,99.465 274.028,97.144 282.800 C 94.338 293.403,94.258 292.409,98.000 293.382 C 104.160 294.982,108.056 296.030,113.100 297.445 C 114.365 297.800,115.912 298.183,116.538 298.296 C 117.862 298.536,117.856 298.897,116.442 304.100 C 114.954 309.578,113.945 313.369,113.649 314.600 C 113.290 316.095,111.804 316.153,107.100 314.855 C 105.395 314.385,102.650 313.640,101.000 313.200 C 99.350 312.760,96.605 312.023,94.900 311.562 C 89.862 310.200,89.739 310.193,89.487 311.262 C 89.365 311.778,88.891 313.595,88.433 315.300 C 85.838 324.957,85.223 327.314,85.210 327.637 C 85.197 327.938,86.878 328.440,95.900 330.831 C 99.858 331.880,104.194 333.037,107.900 334.033 C 109.605 334.491,111.422 334.965,111.937 335.087 C 113.194 335.383,112.991 336.800,110.399 345.800 C 110.209 346.460,109.737 348.234,109.350 349.742 C 108.399 353.446,109.070 353.372,99.500 350.825 C 97.795 350.371,95.095 349.654,93.500 349.231 C 90.754 348.504,88.668 347.937,83.600 346.543 C 82.390 346.210,80.095 345.591,78.500 345.169 C 76.905 344.746,74.250 344.040,72.600 343.600 C 70.950 343.160,68.223 342.449,66.539 342.019 C 62.741 341.051,62.613 340.927,63.129 338.739 C 63.543 336.983,64.964 331.613,65.600 329.400 C 65.790 328.740,66.317 326.805,66.772 325.100 C 68.390 319.042,69.210 315.963,69.969 313.100 C 70.391 311.505,71.010 309.210,71.343 308.000 C 72.737 302.932,73.304 300.846,74.031 298.100 C 74.454 296.505,75.146 293.895,75.569 292.300 C 75.991 290.705,76.621 288.365,76.969 287.100 C 77.316 285.835,77.884 283.765,78.231 282.500 C 78.579 281.235,79.209 278.895,79.631 277.300 C 80.390 274.437,81.210 271.358,82.828 265.300 C 83.283 263.595,83.810 261.660,84.000 261.000 C 84.190 260.340,84.698 258.450,85.130 256.800 C 86.033 253.347,86.382 252.396,86.743 252.410 C 86.884 252.415,87.630 252.582,88.400 252.782 M149.932 267.201 C 152.864 267.416,155.455 267.710,155.688 267.855 C 156.125 268.124,155.977 272.411,155.222 281.400 C 154.878 285.498,154.569 289.251,153.576 301.400 C 153.360 304.040,153.021 308.180,152.822 310.600 C 151.381 328.118,151.346 331.576,152.582 334.509 C 156.157 342.990,169.318 345.526,176.579 339.135 C 180.174 335.970,180.906 333.275,181.994 319.200 C 182.223 316.230,182.585 311.730,182.797 309.200 C 183.010 306.670,183.372 302.260,183.603 299.400 C 183.833 296.540,184.203 291.950,184.425 289.200 C 184.647 286.450,185.003 282.546,185.215 280.523 C 185.427 278.501,185.602 275.801,185.605 274.523 C 185.617 269.732,184.275 270.088,198.285 271.161 C 204.753 271.656,204.496 271.270,203.620 279.173 C 203.411 281.058,203.046 285.210,202.808 288.400 C 202.571 291.590,202.209 296.090,202.005 298.400 C 201.801 300.710,201.442 305.030,201.209 308.000 C 199.075 335.136,198.679 337.987,196.327 343.147 C 189.957 357.123,174.120 364.235,158.000 360.357 C 141.165 356.306,131.559 342.660,133.155 325.060 C 133.378 322.607,133.755 318.170,133.993 315.200 C 134.231 312.230,134.600 307.685,134.813 305.100 C 135.026 302.515,135.374 298.285,135.587 295.700 C 135.800 293.115,136.165 288.570,136.399 285.600 C 136.632 282.630,136.998 278.546,137.212 276.523 C 137.425 274.501,137.602 271.801,137.605 270.523 C 137.616 266.251,137.613 266.253,141.361 266.552 C 143.142 266.694,146.999 266.986,149.932 267.201 M249.880 267.570 C 250.936 267.773,253.214 268.173,254.943 268.457 C 259.566 269.218,259.266 268.476,258.852 278.119 C 258.441 287.680,258.676 287.014,255.928 286.413 C 241.351 283.224,233.780 284.931,231.765 291.861 C 230.026 297.843,233.501 302.021,242.200 304.408 C 246.176 305.499,250.982 307.062,252.700 307.824 C 256.347 309.440,257.197 309.869,259.551 311.282 C 279.235 323.091,275.357 351.417,253.023 358.974 C 244.684 361.795,232.270 361.409,221.582 357.994 C 217.234 356.605,217.608 357.682,217.871 347.297 C 217.997 342.294,218.219 338.068,218.363 337.907 C 218.507 337.747,220.239 338.306,222.213 339.151 C 224.186 339.996,226.250 340.783,226.800 340.900 C 241.183 343.963,249.846 342.395,252.758 336.200 C 255.474 330.423,251.747 325.751,242.400 323.214 C 237.809 321.968,233.467 320.539,231.240 319.541 C 230.228 319.087,228.770 318.431,228.000 318.083 C 207.896 309.000,207.775 280.027,227.800 270.416 C 230.785 268.984,232.211 268.544,236.800 267.640 C 239.245 267.159,247.516 267.114,249.880 267.570 " stroke="none" fill="#8c54fc" fill-rule="evenodd"></path></g></svg>